<svg id="visual" viewBox="0 0 960 540" width="960" height="540" xmlns="http://www.w3.org/2000/svg" xmlns:xlink="http://www.w3.org/1999/xlink" version="1.1"><rect x="0" y="0" width="960" height="540" fill="#001220"></rect><defs><linearGradient id="grad1_0" x1="43.8%" y1="100%" x2="100%" y2="0%"><stop offset="14.444444444444446%" stop-color="#ff9900" stop-opacity="1"></stop><stop offset="85.55555555555554%" stop-color="#ff9900" stop-opacity="1"></stop></linearGradient></defs><defs><linearGradient id="grad1_1" x1="43.8%" y1="100%" x2="100%" y2="0%"><stop offset="14.444444444444446%" stop-color="#ff9900" stop-opacity="1"></stop><stop offset="85.55555555555554%" stop-color="#f66543" stop-opacity="1"></stop></linearGradient></defs><defs><linearGradient id="grad1_2" x1="43.8%" y1="100%" x2="100%" y2="0%"><stop offset="14.444444444444446%" stop-color="#d04362" stop-opacity="1"></stop><stop offset="85.55555555555554%" stop-color="#f66543" stop-opacity="1"></stop></linearGradient></defs><defs><linearGradient id="grad1_3" x1="43.8%" y1="100%" x2="100%" y2="0%"><stop offset="14.444444444444446%" stop-color="#d04362" stop-opacity="1"></stop><stop offset="85.55555555555554%" stop-color="#96376e" stop-opacity="1"></stop></linearGradient></defs><defs><linearGradient id="grad1_4" x1="43.8%" y1="100%" x2="100%" y2="0%"><stop offset="14.444444444444446%" stop-color="#573265" stop-opacity="1"></stop><stop offset="85.55555555555554%" stop-color="#96376e" stop-opacity="1"></stop></linearGradient></defs><defs><linearGradient id="grad1_5" x1="43.8%" y1="100%" x2="100%" y2="0%"><stop offset="14.444444444444446%" stop-color="#573265" stop-opacity="1"></stop><stop offset="85.55555555555554%" stop-color="#1f2647" stop-opacity="1"></stop></linearGradient></defs><defs><linearGradient id="grad1_6" x1="43.8%" y1="100%" x2="100%" y2="0%"><stop offset="14.444444444444446%" stop-color="#001220" stop-opacity="1"></stop><stop offset="85.55555555555554%" stop-color="#1f2647" stop-opacity="1"></stop></linearGradient></defs><defs><linearGradient id="grad2_0" x1="0%" y1="100%" x2="56.3%" y2="0%"><stop offset="14.444444444444446%" stop-color="#ff9900" stop-opacity="1"></stop><stop offset="85.55555555555554%" stop-color="#ff9900" stop-opacity="1"></stop></linearGradient></defs><defs><linearGradient id="grad2_1" x1="0%" y1="100%" x2="56.3%" y2="0%"><stop offset="14.444444444444446%" stop-color="#f66543" stop-opacity="1"></stop><stop offset="85.55555555555554%" stop-color="#ff9900" stop-opacity="1"></stop></linearGradient></defs><defs><linearGradient id="grad2_2" x1="0%" y1="100%" x2="56.3%" y2="0%"><stop offset="14.444444444444446%" stop-color="#f66543" stop-opacity="1"></stop><stop offset="85.55555555555554%" stop-color="#d04362" stop-opacity="1"></stop></linearGradient></defs><defs><linearGradient id="grad2_3" x1="0%" y1="100%" x2="56.3%" y2="0%"><stop offset="14.444444444444446%" stop-color="#96376e" stop-opacity="1"></stop><stop offset="85.55555555555554%" stop-color="#d04362" stop-opacity="1"></stop></linearGradient></defs><defs><linearGradient id="grad2_4" x1="0%" y1="100%" x2="56.3%" y2="0%"><stop offset="14.444444444444446%" stop-color="#96376e" stop-opacity="1"></stop><stop offset="85.55555555555554%" stop-color="#573265" stop-opacity="1"></stop></linearGradient></defs><defs><linearGradient id="grad2_5" x1="0%" y1="100%" x2="56.3%" y2="0%"><stop offset="14.444444444444446%" stop-color="#1f2647" stop-opacity="1"></stop><stop offset="85.55555555555554%" stop-color="#573265" stop-opacity="1"></stop></linearGradient></defs><defs><linearGradient id="grad2_6" x1="0%" y1="100%" x2="56.3%" y2="0%"><stop offset="14.444444444444446%" stop-color="#1f2647" stop-opacity="1"></stop><stop offset="85.55555555555554%" stop-color="#001220" stop-opacity="1"></stop></linearGradient></defs><g transform="translate(960, 540)"><path d="M-405 0C-394.6 -71.2 -384.2 -142.3 -350.7 -202.5C-317.3 -262.7 -260.8 -311.9 -198.5 -343.8C-136.2 -375.7 -68.1 -390.4 0 -405L0 0Z" fill="#0b1d34"></path><path d="M-347.1 0C-338.2 -61 -329.3 -122 -300.6 -173.6C-272 -225.2 -223.5 -267.3 -170.1 -294.7C-116.7 -322.1 -58.4 -334.6 0 -347.1L0 0Z" fill="#392d58"></path><path d="M-289.3 0C-281.9 -50.8 -274.4 -101.7 -250.5 -144.6C-226.6 -187.6 -186.3 -222.8 -141.8 -245.6C-97.3 -268.4 -48.6 -278.8 0 -289.3L0 0Z" fill="#76356c"></path><path d="M-231.4 0C-225.5 -40.7 -219.5 -81.3 -200.4 -115.7C-181.3 -150.1 -149 -178.2 -113.4 -196.5C-77.8 -214.7 -38.9 -223.1 0 -231.4L0 0Z" fill="#b53b6b"></path><path d="M-173.6 0C-169.1 -30.5 -164.7 -61 -150.3 -86.8C-136 -112.6 -111.8 -133.7 -85.1 -147.3C-58.4 -161 -29.2 -167.3 0 -173.6L0 0Z" fill="#e65155"></path><path d="M-115.7 0C-112.7 -20.3 -109.8 -40.7 -100.2 -57.9C-90.7 -75.1 -74.5 -89.1 -56.7 -98.2C-38.9 -107.4 -19.5 -111.5 0 -115.7L0 0Z" fill="#fe7e2d"></path><path d="M-57.9 0C-56.4 -10.2 -54.9 -20.3 -50.1 -28.9C-45.3 -37.5 -37.3 -44.6 -28.4 -49.1C-19.5 -53.7 -9.7 -55.8 0 -57.9L0 0Z" fill="#ff9900"></path></g><g transform="translate(0, 0)"><path d="M405 0C384.8 64.9 364.6 129.8 333.4 192.5C302.2 255.2 259.9 315.7 202.5 350.7C145.1 385.8 72.5 395.4 0 405L0 0Z" fill="#0b1d34"></path><path d="M347.1 0C329.8 55.6 312.6 111.3 285.8 165C259 218.7 222.8 270.6 173.6 300.6C124.4 330.7 62.2 338.9 0 347.1L0 0Z" fill="#392d58"></path><path d="M289.3 0C274.9 46.4 260.5 92.7 238.2 137.5C215.9 182.3 185.7 225.5 144.6 250.5C103.6 275.6 51.8 282.4 0 289.3L0 0Z" fill="#76356c"></path><path d="M231.4 0C219.9 37.1 208.4 74.2 190.5 110C172.7 145.8 148.5 180.4 115.7 200.4C82.9 220.5 41.5 225.9 0 231.4L0 0Z" fill="#b53b6b"></path><path d="M173.6 0C164.9 27.8 156.3 55.6 142.9 82.5C129.5 109.4 111.4 135.3 86.8 150.3C62.2 165.3 31.1 169.5 0 173.6L0 0Z" fill="#e65155"></path><path d="M115.7 0C109.9 18.5 104.2 37.1 95.3 55C86.3 72.9 74.3 90.2 57.9 100.2C41.5 110.2 20.7 113 0 115.7L0 0Z" fill="#fe7e2d"></path><path d="M57.9 0C55 9.3 52.1 18.5 47.6 27.5C43.2 36.5 37.1 45.1 28.9 50.1C20.7 55.1 10.4 56.5 0 57.9L0 0Z" fill="#ff9900"></path></g></svg>