<svg id="visual" viewBox="0 0 900 600" width="900" height="600" xmlns="http://www.w3.org/2000/svg" xmlns:xlink="http://www.w3.org/1999/xlink" version="1.1"><rect x="0" y="0" width="900" height="600" fill="#001220"></rect><path d="M0 212L21.5 196.3C43 180.7 86 149.3 128.8 145C171.7 140.7 214.3 163.3 257.2 172.3C300 181.3 343 176.7 385.8 158.8C428.7 141 471.3 110 514.2 118C557 126 600 173 642.8 172.3C685.7 171.7 728.3 123.3 771.2 120C814 116.7 857 158.3 878.5 179.2L900 200L900 0L878.5 0C857 0 814 0 771.2 0C728.3 0 685.7 0 642.8 0C600 0 557 0 514.2 0C471.3 0 428.7 0 385.8 0C343 0 300 0 257.2 0C214.3 0 171.7 0 128.8 0C86 0 43 0 21.5 0L0 0Z" fill="#FA7268"></path></svg>