<svg id="visual" viewBox="0 0 900 600" width="900" height="600" xmlns="http://www.w3.org/2000/svg" xmlns:xlink="http://www.w3.org/1999/xlink" version="1.1"><rect x="0" y="0" width="900" height="600" fill="#001122"></rect><path d="M0 163L30 163.2C60 163.3 120 163.7 180 149.2C240 134.7 300 105.3 360 104.8C420 104.3 480 132.7 540 130.3C600 128 660 95 720 96.8C780 98.7 840 135.3 870 153.7L900 172L900 0L870 0C840 0 780 0 720 0C660 0 600 0 540 0C480 0 420 0 360 0C300 0 240 0 180 0C120 0 60 0 30 0L0 0Z" fill="#310ca5" stroke-linecap="round" stroke-linejoin="miter"></path></svg>