<svg id="visual" viewBox="0 0 900 600" width="900" height="600" xmlns="http://www.w3.org/2000/svg" xmlns:xlink="http://www.w3.org/1999/xlink" version="1.1"><rect x="0" y="0" width="900" height="600" fill="#001220"></rect><path d="M0 362L21.5 366.8C43 371.7 86 381.3 128.8 395.2C171.7 409 214.3 427 257.2 439.3C300 451.7 343 458.3 385.8 453.5C428.7 448.7 471.3 432.3 514.2 420.5C557 408.7 600 401.3 642.8 408.7C685.7 416 728.3 438 771.2 434.7C814 431.3 857 402.7 878.5 388.3L900 374L900 601L878.5 601C857 601 814 601 771.2 601C728.3 601 685.7 601 642.8 601C600 601 557 601 514.2 601C471.3 601 428.7 601 385.8 601C343 601 300 601 257.2 601C214.3 601 171.7 601 128.8 601C86 601 43 601 21.5 601L0 601Z" fill="#00008d"></path><path d="M0 494L21.5 495.7C43 497.3 86 500.7 128.8 501C171.7 501.3 214.3 498.7 257.2 490.5C300 482.3 343 468.7 385.8 471.5C428.7 474.3 471.3 493.7 514.2 501.3C557 509 600 505 642.8 498.7C685.7 492.3 728.3 483.7 771.2 483C814 482.3 857 489.7 878.5 493.3L900 497L900 601L878.5 601C857 601 814 601 771.2 601C728.3 601 685.7 601 642.8 601C600 601 557 601 514.2 601C471.3 601 428.7 601 385.8 601C343 601 300 601 257.2 601C214.3 601 171.7 601 128.8 601C86 601 43 601 21.5 601L0 601Z" fill="#8e007b"></path><path d="M0 547L21.5 539.3C43 531.7 86 516.3 128.8 510.5C171.7 504.7 214.3 508.3 257.2 517.8C300 527.3 343 542.7 385.8 548.2C428.7 553.7 471.3 549.3 514.2 548.3C557 547.3 600 549.7 642.8 542.7C685.7 535.7 728.3 519.3 771.2 514C814 508.7 857 514.3 878.5 517.2L900 520L900 601L878.5 601C857 601 814 601 771.2 601C728.3 601 685.7 601 642.8 601C600 601 557 601 514.2 601C471.3 601 428.7 601 385.8 601C343 601 300 601 257.2 601C214.3 601 171.7 601 128.8 601C86 601 43 601 21.5 601L0 601Z" fill="#c62368"></path></svg>