<svg id="visual" viewBox="0 0 900 600" width="900" height="600" xmlns="http://www.w3.org/2000/svg" xmlns:xlink="http://www.w3.org/1999/xlink" version="1.1"><rect x="0" y="0" width="900" height="600" fill="#560090"></rect><path d="M0 360L129 360L129 269L257 269L257 267L386 267L386 330L514 330L514 340L643 340L643 269L771 269L771 339L900 339L900 330L900 601L900 601L771 601L771 601L643 601L643 601L514 601L514 601L386 601L386 601L257 601L257 601L129 601L129 601L0 601Z" fill="#9900ff"></path><path d="M0 351L129 351L129 464L257 464L257 426L386 426L386 365L514 365L514 390L643 390L643 352L771 352L771 405L900 405L900 427L900 601L900 601L771 601L771 601L643 601L643 601L514 601L514 601L386 601L386 601L257 601L257 601L129 601L129 601L0 601Z" fill="#7700c6"></path><path d="M0 498L129 498L129 474L257 474L257 542L386 542L386 463L514 463L514 509L643 509L643 483L771 483L771 539L900 539L900 530L900 601L900 601L771 601L771 601L643 601L643 601L514 601L514 601L386 601L386 601L257 601L257 601L129 601L129 601L0 601Z" fill="#560090"></path></svg>