<svg id="visual" viewBox="0 0 900 600" width="900" height="600" xmlns="http://www.w3.org/2000/svg" xmlns:xlink="http://www.w3.org/1999/xlink" version="1.1"><rect x="0" y="0" width="900" height="600" fill="#001122"></rect><path d="M0 329L129 329L129 277L257 277L257 338L386 338L386 234L514 234L514 261L643 261L643 317L771 317L771 235L900 235L900 224L900 0L900 0L771 0L771 0L643 0L643 0L514 0L514 0L386 0L386 0L257 0L257 0L129 0L129 0L0 0Z" fill="#310672"></path><path d="M0 237L129 237L129 182L257 182L257 158L386 158L386 158L514 158L514 167L643 167L643 145L771 145L771 220L900 220L900 149L900 0L900 0L771 0L771 0L643 0L643 0L514 0L514 0L386 0L386 0L257 0L257 0L129 0L129 0L0 0Z" fill="#4b05b6"></path><path d="M0 66L129 66L129 100L257 100L257 69L386 69L386 93L514 93L514 80L643 80L643 152L771 152L771 66L900 66L900 131L900 0L900 0L771 0L771 0L643 0L643 0L514 0L514 0L386 0L386 0L257 0L257 0L129 0L129 0L0 0Z" fill="#6600ff"></path></svg>