<svg id="visual" viewBox="0 0 900 600" width="900" height="600" xmlns="http://www.w3.org/2000/svg" xmlns:xlink="http://www.w3.org/1999/xlink" version="1.1"><path d="M0 187L82 199L164 175L245 193L327 109L409 91L491 253L573 217L655 199L736 127L818 211L900 145L900 0L818 0L736 0L655 0L573 0L491 0L409 0L327 0L245 0L164 0L82 0L0 0Z" fill="#001122"></path><path d="M0 265L82 295L164 229L245 259L327 187L409 133L491 289L573 283L655 241L736 181L818 301L900 205L900 143L818 209L736 125L655 197L573 215L491 251L409 89L327 107L245 191L164 173L82 197L0 185Z" fill="#00255e"></path><path d="M0 397L82 427L164 367L245 343L327 295L409 259L491 355L573 367L655 349L736 289L818 439L900 301L900 203L818 299L736 179L655 239L573 281L491 287L409 131L327 185L245 257L164 227L82 293L0 263Z" fill="#002f99"></path><path d="M0 463L82 499L164 415L245 445L327 379L409 385L491 487L573 463L655 463L736 343L818 499L900 373L900 299L818 437L736 287L655 347L573 365L491 353L409 257L327 293L245 341L164 365L82 425L0 395Z" fill="#2b2ccf"></path><path d="M0 601L82 601L164 601L245 601L327 601L409 601L491 601L573 601L655 601L736 601L818 601L900 601L900 371L818 497L736 341L655 461L573 461L491 485L409 383L327 377L245 443L164 413L82 497L0 461Z" fill="#6600ff"></path></svg>