<svg id="visual" viewBox="0 0 900 600" width="900" height="600" xmlns="http://www.w3.org/2000/svg" xmlns:xlink="http://www.w3.org/1999/xlink" version="1.1"><rect x="0" y="0" width="900" height="600" fill="#121212"></rect><path d="M0 498L21.5 486.3C43 474.7 86 451.3 128.8 438.3C171.7 425.3 214.3 422.7 257.2 418.8C300 415 343 410 385.8 412.7C428.7 415.3 471.3 425.7 514.2 439.2C557 452.7 600 469.3 642.8 478.5C685.7 487.7 728.3 489.3 771.2 486.3C814 483.3 857 475.7 878.5 471.8L900 468L900 601L878.5 601C857 601 814 601 771.2 601C728.3 601 685.7 601 642.8 601C600 601 557 601 514.2 601C471.3 601 428.7 601 385.8 601C343 601 300 601 257.2 601C214.3 601 171.7 601 128.8 601C86 601 43 601 21.5 601L0 601Z" fill="#2a2e35" stroke-linecap="round" stroke-linejoin="miter"></path></svg>